<?xml version="1.0" encoding="UTF-8"?>
<svg width="64" height="64" viewBox="0 0 64 64" xmlns="http://www.w3.org/2000/svg">
  <defs>
    <linearGradient id="grad1" x1="0%" y1="0%" x2="100%" y2="100%">
      <stop offset="0%" style="stop-color:#3498db;stop-opacity:1" />
      <stop offset="100%" style="stop-color:#2980b9;stop-opacity:1" />
    </linearGradient>
  </defs>
  
  <!-- Main folder icon -->
  <path d="M8 16 L28 16 L32 20 L56 20 L56 48 L8 48 Z" 
        fill="url(#grad1)" 
        stroke="#2c3e50" 
        stroke-width="2"/>
  
  <!-- Gear/settings icon overlay -->
  <g transform="translate(40, 28)" fill="#ecf0f1" stroke="#2c3e50" stroke-width="1">
    <circle cx="0" cy="0" r="8"/>
    <circle cx="0" cy="0" r="4" fill="#2c3e50"/>
    <!-- Gear teeth -->
    <rect x="-2" y="-12" width="4" height="4"/>
    <rect x="-2" y="8" width="4" height="4"/>
    <rect x="-12" y="-2" width="4" height="4"/>
    <rect x="8" y="-2" width="4" height="4"/>
    <rect x="-9" y="-9" width="3" height="3" transform="rotate(45)"/>
    <rect x="6" y="-9" width="3" height="3" transform="rotate(45)"/>
    <rect x="-9" y="6" width="3" height="3" transform="rotate(45)"/>
    <rect x="6" y="6" width="3" height="3" transform="rotate(45)"/>
  </g>
  
  <!-- Document icon -->
  <g transform="translate(16, 28)" fill="#ecf0f1" stroke="#2c3e50" stroke-width="1">
    <rect x="0" y="0" width="12" height="16" rx="1"/>
    <line x1="2" y1="4" x2="10" y2="4" stroke="#95a5a6" stroke-width="1"/>
    <line x1="2" y1="7" x2="10" y2="7" stroke="#95a5a6" stroke-width="1"/>
    <line x1="2" y1="10" x2="8" y2="10" stroke="#95a5a6" stroke-width="1"/>
  </g>
</svg>
